<svg width="732" height="62" viewBox="0 0 732 62" fill="#fff" xmlns="http://www.w3.org/2000/svg">
<path d="M100.601 59.9998H134.691V53.7498H107.646V1.818H100.601V59.9998Z" fill="#fff"/>
<path d="M166.684 8.068H184.98V59.9998H192.025V8.068H210.321V1.818H166.684V8.068Z" fill="#fff"/>
<path d="M260.24 1.818H253.194V59.9998H260.24V1.818Z" fill="#fff"/>
<path d="M338.184 16.3635H345.003C344.69 7.58505 336.594 1.02255 325.344 1.02255C314.207 1.02255 305.457 7.49982 305.457 17.2725C305.457 25.1135 311.139 29.7726 320.23 32.3862L327.389 34.4316C333.525 36.1362 338.98 38.2953 338.98 44.0907C338.98 50.4544 332.844 54.6589 324.775 54.6589C317.844 54.6589 311.707 51.5907 311.139 44.9998H303.866C304.548 54.5453 312.275 61.0226 324.775 61.0226C338.184 61.0226 345.798 53.6362 345.798 44.2044C345.798 33.2953 335.457 29.7726 329.434 28.1816L323.525 26.5907C319.207 25.4544 312.275 23.1816 312.275 16.9316C312.275 11.3635 317.389 7.27255 325.116 7.27255C332.162 7.27255 337.503 10.6248 338.184 16.3635Z" fill="#fff"/>
<path d="M444.564 59.9998H477.603V55.2271H449.876V1.818H444.564V59.9998Z" fill="#fff"/>
<path d="M525.321 59.9998L531.542 42.4714H555.974L562.196 59.9998H567.764L546.599 1.818H540.917L519.753 59.9998H525.321ZM533.247 37.6987L543.559 8.72141H543.957L554.27 37.6987H533.247Z" fill="#fff"/>
<path d="M609.736 59.9998H630.446C642.946 59.9998 648.713 53.551 648.713 44.7441C648.713 35.9089 642.86 30.5964 637.207 30.1987V29.7441C642.406 28.3521 646.44 24.318 646.44 17.0453C646.44 8.29528 640.73 1.818 629.366 1.818H609.736V59.9998ZM615.048 55.2271V32.8123H630.673C638.486 32.8123 643.628 38.0964 643.628 44.7441C643.628 50.7669 639.423 55.2271 630.446 55.2271H615.048ZM615.048 28.0964V6.59073H629.366C637.321 6.59073 641.355 10.8805 641.355 17.0453C641.355 23.4373 636.724 28.0964 629.849 28.0964H615.048Z" fill="#fff"/>
<path d="M725.123 16.3635H730.265C729.868 7.52823 722.226 0.994141 711.402 0.994141C700.663 0.994141 692.396 7.443 692.396 16.818C692.396 24.2896 697.68 28.9771 706.799 31.676L713.76 33.7214C720.976 35.8237 725.919 38.5226 725.919 44.4601C725.919 51.4487 719.583 56.1362 710.89 56.1362C703.049 56.1362 696.913 52.3578 696.345 45.4544H690.89C691.515 54.6589 699.015 60.9941 710.89 60.9941C723.504 60.9941 731.061 53.8635 731.061 44.5453C731.061 34.8862 722.652 31.0226 715.265 28.9487L709.129 27.1873C703.476 25.5964 697.538 22.7271 697.538 16.5907C697.538 10.3407 703.135 5.76687 711.26 5.76687C718.958 5.76687 724.47 9.88619 725.123 16.3635Z" fill="#fff"/>
<path fill-rule="evenodd" clip-rule="evenodd" d="M31.837 2.00394C32.6058 0.665354 34.5369 0.665353 35.3056 2.00394L66.874 56.97C67.6398 58.3033 66.6773 59.9661 65.1397 59.9661H60.0877L54.7426 50.7391L34.4385 15.3861C34.0541 14.7169 33.0886 14.7169 32.7042 15.3862L12.2208 51.0513C11.8379 51.718 12.3192 52.5494 13.088 52.5494H46.0614L50.3578 59.9661H2.00297C0.465386 59.9661 -0.497112 58.3034 0.268651 56.97L31.837 2.00394Z" fill="#fff"/>
</svg>
